<svg width="24" height="24" viewBox="0 0 24 24" fill="none" xmlns="http://www.w3.org/2000/svg">
<path d="M5.11111 13.5H7.33333C7.94444 13.5 8.44444 13 8.44444 12.3889V11.1667C8.44444 10.5556 7.94444 10.0556 7.33333 10.0556H5.11111C4.5 10.0556 4 10.5556 4 11.1667V12.3889C4 13 4.5 13.5 5.11111 13.5ZM5.11111 19.0556H7.33333C7.94444 19.0556 8.44444 18.5556 8.44444 17.9444V16.7222C8.44444 16.1111 7.94444 15.6111 7.33333 15.6111H5.11111C4.5 15.6111 4 16.1111 4 16.7222V17.9444C4 18.5556 4.5 19.0556 5.11111 19.0556ZM5.11111 7.94444H7.33333C7.94444 7.94444 8.44444 7.44444 8.44444 6.83333V5.61111C8.44444 5 7.94444 4.5 7.33333 4.5H5.11111C4.5 4.5 4 5 4 5.61111V6.83333C4 7.44444 4.5 7.94444 5.11111 7.94444ZM10.6667 13.5H18.8889C19.5 13.5 20 13 20 12.3889V11.1667C20 10.5556 19.5 10.0556 18.8889 10.0556H10.6667C10.0556 10.0556 9.55556 10.5556 9.55556 11.1667V12.3889C9.55556 13 10.0556 13.5 10.6667 13.5ZM10.6667 19.0556H18.8889C19.5 19.0556 20 18.5556 20 17.9444V16.7222C20 16.1111 19.5 15.6111 18.8889 15.6111H10.6667C10.0556 15.6111 9.55556 16.1111 9.55556 16.7222V17.9444C9.55556 18.5556 10.0556 19.0556 10.6667 19.0556ZM9.55556 5.61111V6.83333C9.55556 7.44444 10.0556 7.94444 10.6667 7.94444H18.8889C19.5 7.94444 20 7.44444 20 6.83333V5.61111C20 5 19.5 4.5 18.8889 4.5H10.6667C10.0556 4.5 9.55556 5 9.55556 5.61111Z" fill="black"/>
</svg>
