<svg width="24" height="24" viewBox="0 0 24 24" fill="none" xmlns="http://www.w3.org/2000/svg">
<path d="M18.085 10.0057V6.39117C18.085 5.92885 17.6937 5.55059 17.2154 5.55059H16.3459C15.8676 5.55059 15.4763 5.92885 15.4763 6.39117V7.73611L12.5807 5.21435C12.2502 4.92855 11.7459 4.92855 11.4155 5.21435L4.14596 11.544C3.85031 11.7962 4.03291 12.2753 4.43291 12.2753H5.91116V18.1594C5.91116 18.6217 6.30246 19 6.78072 19H9.38939C9.86765 19 10.259 18.6217 10.259 18.1594V13.9565H13.7372V18.1594C13.7372 18.6217 14.1285 19 14.6067 19H17.2154C17.6937 19 18.085 18.6217 18.085 18.1594V12.2753H19.5632C19.9632 12.2753 20.1545 11.7962 19.8502 11.544L18.085 10.0057Z" fill="black"/>
</svg>
