<svg width="24" height="24" viewBox="0 0 24 24" fill="none" xmlns="http://www.w3.org/2000/svg">
<path d="M14 9C14 9.55 13.55 10 13 10H4C3.45 10 3 9.55 3 9C3 8.45 3.45 8 4 8H13C13.55 8 14 8.45 14 9ZM3 5C3 5.55 3.45 6 4 6H13C13.55 6 14 5.55 14 5C14 4.45 13.55 4 13 4H4C3.45 4 3 4.45 3 5ZM10 13C10 12.45 9.55 12 9 12H4C3.45 12 3 12.45 3 13C3 13.55 3.45 14 4 14H9C9.55 14 10 13.55 10 13ZM18.01 10.87L18.72 10.16C19.11 9.77 19.74 9.77 20.13 10.16L20.84 10.87C21.23 11.26 21.23 11.89 20.84 12.28L20.13 12.99L18.01 10.87ZM17.3 11.58L12.14 16.74C12.05 16.83 12 16.95 12 17.09V18.5C12 18.78 12.22 19 12.5 19H13.91C14.04 19 14.17 18.95 14.26 18.85L19.42 13.69L17.3 11.58Z" fill="#1949D8"/>
</svg>
