<svg width="24" height="24" viewBox="0 0 24 24" fill="none" xmlns="http://www.w3.org/2000/svg">
<path d="M4.75 7C4.75 6.30964 5.30964 5.75 6 5.75H9.17203C9.46392 5.75 9.74661 5.85215 9.97108 6.03874L10.9648 6.86477C11.4586 7.27527 12.0805 7.5 12.7227 7.5H18C18.6904 7.5 19.25 8.05964 19.25 8.75V17C19.25 17.6904 18.6904 18.25 18 18.25H6C5.30964 18.25 4.75 17.6904 4.75 17V7Z" stroke="black" stroke-width="1.5"/>
<path d="M4.75 7C4.75 6.30964 5.30964 5.75 6 5.75H9.17203C9.46392 5.75 9.74661 5.85215 9.97108 6.03874L10.9648 6.86477C11.4586 7.27527 12.0805 7.5 12.7227 7.5H18C18.6904 7.5 19.25 8.05964 19.25 8.75V17C19.25 17.6904 18.6904 18.25 18 18.25H6C5.30964 18.25 4.75 17.6904 4.75 17V7Z" stroke="#1949D8" stroke-width="1.5"/>
</svg>
