<svg width="24" height="24" viewBox="0 0 24 24" fill="none" xmlns="http://www.w3.org/2000/svg">
<path d="M18.4115 16.2412C18.0353 15.3992 17.4892 14.6344 16.8038 13.9893C16.1205 13.3424 15.3111 12.8266 14.4202 12.4705C14.4122 12.4667 14.4042 12.4648 14.3963 12.4611C15.6389 11.6131 16.4468 10.2318 16.4468 8.67337C16.4468 6.09171 14.2327 4 11.5 4C8.76731 4 6.55322 6.09171 6.55322 8.67337C6.55322 10.2318 7.36106 11.6131 8.60374 12.4629C8.59576 12.4667 8.58779 12.4686 8.57981 12.4724C7.6862 12.8285 6.88434 13.3392 6.19618 13.9912C5.51143 14.6367 4.96548 15.4015 4.58848 16.2431C4.21811 17.0671 4.01836 17.9505 4.00005 18.8455C3.99952 18.8656 4.00325 18.8856 4.01103 18.9043C4.01881 18.9231 4.03048 18.9401 4.04535 18.9545C4.06022 18.9689 4.078 18.9804 4.09762 18.9882C4.11725 18.996 4.13833 19 4.15962 19H5.35642C5.44419 19 5.514 18.934 5.516 18.853C5.55589 17.3982 6.17424 16.0358 7.26732 15.0031C8.39829 13.9347 9.90028 13.3467 11.5 13.3467C13.0997 13.3467 14.6017 13.9347 15.7327 15.0031C16.8258 16.0358 17.4441 17.3982 17.484 18.853C17.486 18.9359 17.5558 19 17.6436 19H18.8404C18.8617 19 18.8828 18.996 18.9024 18.9882C18.922 18.9804 18.9398 18.9689 18.9546 18.9545C18.9695 18.9401 18.9812 18.9231 18.989 18.9043C18.9967 18.8856 19.0005 18.8656 19 18.8455C18.98 17.9447 18.7825 17.0685 18.4115 16.2412ZM11.5 11.9146C10.5844 11.9146 9.72275 11.5773 9.07448 10.9648C8.42622 10.3524 8.06917 9.53832 8.06917 8.67337C8.06917 7.80842 8.42622 6.99435 9.07448 6.38191C9.72275 5.76947 10.5844 5.43216 11.5 5.43216C12.4156 5.43216 13.2772 5.76947 13.9255 6.38191C14.5738 6.99435 14.9308 7.80842 14.9308 8.67337C14.9308 9.53832 14.5738 10.3524 13.9255 10.9648C13.2772 11.5773 12.4156 11.9146 11.5 11.9146Z" fill="#1949D8"/>
</svg>
