<svg width="24" height="24" viewBox="0 0 24 24" fill="none" xmlns="http://www.w3.org/2000/svg">
<path d="M16.4115 17.2412C16.0353 16.3992 15.4892 15.6344 14.8038 14.9893C14.1205 14.3424 13.3111 13.8266 12.4202 13.4705C12.4122 13.4667 12.4042 13.4648 12.3963 13.4611C13.6389 12.6131 14.4468 11.2318 14.4468 9.67337C14.4468 7.09171 12.2327 5 9.5 5C6.76731 5 4.55322 7.09171 4.55322 9.67337C4.55322 11.2318 5.36106 12.6131 6.60374 13.4629C6.59576 13.4667 6.58779 13.4686 6.57981 13.4724C5.6862 13.8285 4.88434 14.3392 4.19618 14.9912C3.51143 15.6367 2.96548 16.4015 2.58848 17.2431C2.21811 18.0671 2.01836 18.9505 2.00005 19.8455C1.99952 19.8656 2.00325 19.8856 2.01103 19.9043C2.01881 19.9231 2.03048 19.9401 2.04535 19.9545C2.06022 19.9689 2.078 19.9804 2.09762 19.9882C2.11725 19.996 2.13833 20 2.15962 20H3.35642C3.44419 20 3.514 19.934 3.516 19.853C3.55589 18.3982 4.17424 17.0358 5.26732 16.0031C6.39829 14.9347 7.90028 14.3467 9.5 14.3467C11.0997 14.3467 12.6017 14.9347 13.7327 16.0031C14.8258 17.0358 15.4441 18.3982 15.484 19.853C15.486 19.9359 15.5558 20 15.6436 20H16.8404C16.8617 20 16.8828 19.996 16.9024 19.9882C16.922 19.9804 16.9398 19.9689 16.9546 19.9545C16.9695 19.9401 16.9812 19.9231 16.989 19.9043C16.9967 19.8856 17.0005 19.8656 17 19.8455C16.98 18.9447 16.7825 18.0685 16.4115 17.2412ZM9.5 12.9146C8.58445 12.9146 7.72275 12.5773 7.07448 11.9648C6.42622 11.3524 6.06917 10.5383 6.06917 9.67337C6.06917 8.80842 6.42622 7.99435 7.07448 7.38191C7.72275 6.76947 8.58445 6.43216 9.5 6.43216C10.4156 6.43216 11.2772 6.76947 11.9255 7.38191C12.5738 7.99435 12.9308 8.80842 12.9308 9.67337C12.9308 10.5383 12.5738 11.3524 11.9255 11.9648C11.2772 12.5773 10.4156 12.9146 9.5 12.9146Z" fill="black"/>
<path fill-rule="evenodd" clip-rule="evenodd" d="M14.74 11.5464C14.5328 12.0062 14.2499 12.4275 13.9051 12.7926C14.6872 13.3246 15.6599 13.5829 16.6716 13.4507C18.8621 13.1647 20.406 11.157 20.1199 8.96645C19.8339 6.77591 17.8262 5.23203 15.6356 5.5181C14.882 5.61653 14.2048 5.91877 13.6524 6.36214C14.023 6.69672 14.3391 7.09346 14.5832 7.53881C14.9297 7.25853 15.3555 7.06742 15.8299 7.00548C17.199 6.82668 18.4538 7.7916 18.6326 9.16069C18.8114 10.5298 17.8464 11.7846 16.4774 11.9634C15.8415 12.0464 15.2302 11.8827 14.74 11.5464Z" fill="black"/>
<path fill-rule="evenodd" clip-rule="evenodd" d="M17.8634 11.6479C19.8965 12.8569 21.2636 14.9551 21.3358 17.3556C21.3391 17.466 21.2493 17.5557 21.1388 17.5557H20.0388C19.9283 17.5557 19.8392 17.4661 19.8348 17.3557C19.7587 15.4483 18.598 13.7251 16.8421 12.7906C16.7175 12.7243 16.6907 12.554 16.7936 12.4574L17.6283 11.6745C17.6922 11.6146 17.788 11.603 17.8634 11.6479Z" fill="black"/>
</svg>
