<svg width="5" height="5" viewBox="0 0 5 5" fill="none" xmlns="http://www.w3.org/2000/svg">
<path d="M1.86428 0.956559C2.06437 0.340718 2.93563 0.340718 3.13572 0.956559C3.22521 1.23197 3.48186 1.41844 3.77145 1.41844C4.41898 1.41844 4.68822 2.24705 4.16435 2.62766C3.93007 2.79788 3.83204 3.09959 3.92152 3.375C4.12162 3.99084 3.41677 4.50295 2.8929 4.12234C2.65862 3.95212 2.34138 3.95213 2.1071 4.12234C1.58323 4.50295 0.878377 3.99084 1.07848 3.375C1.16796 3.09959 1.06993 2.79788 0.835651 2.62766C0.311785 2.24705 0.581016 1.41844 1.22855 1.41844C1.51814 1.41844 1.77479 1.23197 1.86428 0.956559Z" fill="#F84646"/>
</svg>
