<svg width="17" height="17" viewBox="0 0 17 17" fill="none" xmlns="http://www.w3.org/2000/svg">
<path d="M10.9792 14.166H3.89582V4.95768C3.89582 4.5681 3.57707 4.24935 3.18749 4.24935C2.79791 4.24935 2.47916 4.5681 2.47916 4.95768V14.166C2.47916 14.9452 3.11666 15.5827 3.89582 15.5827H10.9792C11.3687 15.5827 11.6875 15.2639 11.6875 14.8743C11.6875 14.4848 11.3687 14.166 10.9792 14.166ZM14.5208 11.3327V2.83268C14.5208 2.05352 13.8833 1.41602 13.1042 1.41602H6.72916C5.94999 1.41602 5.31249 2.05352 5.31249 2.83268V11.3327C5.31249 12.1118 5.94999 12.7493 6.72916 12.7493H13.1042C13.8833 12.7493 14.5208 12.1118 14.5208 11.3327ZM13.1042 11.3327H6.72916V2.83268H13.1042V11.3327Z" fill="#6E7F99"/>
</svg>
