<svg width="25" height="21" viewBox="0 0 25 21" fill="none" xmlns="http://www.w3.org/2000/svg">
<path d="M14.9479 1.72168H10.0521C8.96876 1.72168 8.08334 2.44473 8.08334 3.33994V4.14908C8.08334 5.04428 8.95834 5.76734 10.0417 5.76734H14.9479C16.0313 5.76734 16.9063 5.04428 16.9063 4.14908V3.33994C16.9167 2.44473 16.0313 1.72168 14.9479 1.72168Z" fill="#6495F4"/>
<path d="M17.9583 4.14895C17.9583 5.51759 16.6041 6.6366 14.9479 6.6366H10.0521C8.39581 6.6366 7.04165 5.51759 7.04165 4.14895C7.04165 3.66691 6.41665 3.36564 5.89581 3.58944C4.42706 4.23503 3.42706 5.51759 3.42706 6.98952V15.0894C3.42706 17.207 5.52081 18.9371 8.08331 18.9371H16.9166C19.4791 18.9371 21.5729 17.207 21.5729 15.0894V6.98952C21.5729 5.51759 20.5729 4.23503 19.1041 3.58944C18.5833 3.36564 17.9583 3.66691 17.9583 4.14895ZM15.9791 10.9577L11.8125 14.4008C11.6562 14.5299 11.4583 14.5902 11.2604 14.5902C11.0625 14.5902 10.8646 14.5299 10.7083 14.4008L9.14581 13.1097C8.84373 12.86 8.84373 12.4469 9.14581 12.1972C9.4479 11.9476 9.9479 11.9476 10.25 12.1972L11.2604 13.0322L14.875 10.0453C15.1771 9.79566 15.6771 9.79566 15.9791 10.0453C16.2812 10.2949 16.2812 10.7081 15.9791 10.9577Z" fill="#6495F4"/>
</svg>
