<svg width="25" height="25" viewBox="0 0 25 25" fill="none" xmlns="http://www.w3.org/2000/svg">
<path fill-rule="evenodd" clip-rule="evenodd" d="M12.5 2.08301C6.74701 2.08301 2.08331 6.74671 2.08331 12.4997C2.08331 18.2526 6.74701 22.9163 12.5 22.9163C18.2529 22.9163 22.9166 18.2526 22.9166 12.4997C22.9166 6.74671 18.2529 2.08301 12.5 2.08301ZM8.85415 8.85384C8.85415 6.8403 10.4864 5.20801 12.5 5.20801C14.5135 5.20801 16.1458 6.8403 16.1458 8.85384C16.1458 10.8674 14.5135 12.4997 12.5 12.4997C10.4864 12.4997 8.85415 10.8674 8.85415 8.85384ZM5.4981 17.0201C7.21553 15.6161 9.72365 14.583 12.5 14.583C15.2763 14.583 17.7845 15.6161 19.5019 17.0201C18.0176 19.3146 15.4361 20.833 12.5 20.833C9.5639 20.833 6.98246 19.3146 5.4981 17.0201Z" fill="#6495F4"/>
</svg>
