<svg width="18" height="18" viewBox="0 0 18 18" fill="none" xmlns="http://www.w3.org/2000/svg">
<path d="M11.9061 5.94428C11.7503 5.7904 11.4997 5.7904 11.3439 5.94428L10.9608 6.32262C10.8025 6.47901 10.8023 6.73457 10.9603 6.89127L12.4147 8.33333H7.45C7.22909 8.33333 7.05 8.51242 7.05 8.73333V9.26667C7.05 9.48758 7.22909 9.66667 7.45 9.66667H12.4147L10.9604 11.1031C10.8022 11.2593 10.8018 11.5145 10.9594 11.6713L11.3439 12.0537C11.4996 12.2086 11.7509 12.209 11.9071 12.0547L14.7118 9.28459C14.8704 9.12799 14.8704 8.87201 14.7118 8.71541L11.9061 5.94428ZM3.6 4.53333C3.6 4.42288 3.68954 4.33333 3.8 4.33333H8.6C8.82091 4.33333 9 4.15425 9 3.93333V3.4C9 3.17909 8.82091 3 8.6 3H3.6C2.8575 3 2.25 3.6 2.25 4.33333V13.6667C2.25 14.4 2.8575 15 3.6 15H8.6C8.82091 15 9 14.8209 9 14.6V14.0667C9 13.8458 8.82091 13.6667 8.6 13.6667H3.8C3.68954 13.6667 3.6 13.5771 3.6 13.4667V4.53333Z" fill="black"/>
<path d="M11.9061 5.94428C11.7503 5.7904 11.4997 5.7904 11.3439 5.94428L10.9608 6.32262C10.8025 6.47901 10.8023 6.73457 10.9603 6.89127L12.4147 8.33333H7.45C7.22909 8.33333 7.05 8.51242 7.05 8.73333V9.26667C7.05 9.48758 7.22909 9.66667 7.45 9.66667H12.4147L10.9604 11.1031C10.8022 11.2593 10.8018 11.5145 10.9594 11.6713L11.3439 12.0537C11.4996 12.2086 11.7509 12.209 11.9071 12.0547L14.7118 9.28459C14.8704 9.12799 14.8704 8.87201 14.7118 8.71541L11.9061 5.94428ZM3.6 4.53333C3.6 4.42288 3.68954 4.33333 3.8 4.33333H8.6C8.82091 4.33333 9 4.15425 9 3.93333V3.4C9 3.17909 8.82091 3 8.6 3H3.6C2.8575 3 2.25 3.6 2.25 4.33333V13.6667C2.25 14.4 2.8575 15 3.6 15H8.6C8.82091 15 9 14.8209 9 14.6V14.0667C9 13.8458 8.82091 13.6667 8.6 13.6667H3.8C3.68954 13.6667 3.6 13.5771 3.6 13.4667V4.53333Z" fill="#1949D8"/>
</svg>
