<svg width="25" height="21" viewBox="0 0 25 21" fill="none" xmlns="http://www.w3.org/2000/svg">
<path fill-rule="evenodd" clip-rule="evenodd" d="M7.125 2.58228C4.91586 2.58228 3.125 4.37313 3.125 6.58227V14.0763C3.125 16.2854 4.91586 18.0763 7.125 18.0763H17.875C20.0841 18.0763 21.875 16.2854 21.875 14.0763V6.58228C21.875 4.37314 20.0841 2.58228 17.875 2.58228H7.125ZM11.6363 7.45823C11.5039 7.23952 11.2334 7.10136 10.9375 7.10136C10.6416 7.10136 10.3711 7.23952 10.2387 7.45823L8.89216 9.6837H6.25C5.81853 9.6837 5.46875 9.97274 5.46875 10.3293C5.46875 10.6858 5.81853 10.9749 6.25 10.9749H9.375C9.67092 10.9749 9.94143 10.8367 10.0738 10.618L10.9375 9.19052L13.3637 13.2003C13.4961 13.419 13.7666 13.5572 14.0625 13.5572C14.3584 13.5572 14.6289 13.419 14.7613 13.2003L16.1078 10.9749H18.75C19.1815 10.9749 19.5312 10.6858 19.5312 10.3293C19.5312 9.97274 19.1815 9.6837 18.75 9.6837H15.625C15.3291 9.6837 15.0586 9.82185 14.9262 10.0406L14.0625 11.468L11.6363 7.45823Z" fill="#6495F4"/>
</svg>
