<svg width="16" height="16" viewBox="0 0 16 16" fill="none" xmlns="http://www.w3.org/2000/svg">
<path d="M10 7.99996C11.4734 7.99996 12.6667 6.80663 12.6667 5.33329C12.6667 3.85996 11.4734 2.66663 10 2.66663C8.52669 2.66663 7.33335 3.85996 7.33335 5.33329C7.33335 6.80663 8.52669 7.99996 10 7.99996ZM4.00002 6.66663V5.33329C4.00002 4.96663 3.70002 4.66663 3.33335 4.66663C2.96669 4.66663 2.66669 4.96663 2.66669 5.33329V6.66663H1.33335C0.966687 6.66663 0.666687 6.96663 0.666687 7.33329C0.666687 7.69996 0.966687 7.99996 1.33335 7.99996H2.66669V9.33329C2.66669 9.69996 2.96669 9.99996 3.33335 9.99996C3.70002 9.99996 4.00002 9.69996 4.00002 9.33329V7.99996H5.33335C5.70002 7.99996 6.00002 7.69996 6.00002 7.33329C6.00002 6.96663 5.70002 6.66663 5.33335 6.66663H4.00002ZM10 9.33329C8.22002 9.33329 4.66669 10.2266 4.66669 12V12.6666C4.66669 13.0333 4.96669 13.3333 5.33335 13.3333H14.6667C15.0334 13.3333 15.3334 13.0333 15.3334 12.6666V12C15.3334 10.2266 11.78 9.33329 10 9.33329Z" fill="#6E7F99"/>
</svg>
