<svg width="18" height="18" viewBox="0 0 18 18" fill="none" xmlns="http://www.w3.org/2000/svg">
<path fill-rule="evenodd" clip-rule="evenodd" d="M7.875 11.25C9.73896 11.25 11.25 9.73896 11.25 7.875C11.25 6.01104 9.73896 4.5 7.875 4.5C6.01104 4.5 4.5 6.01104 4.5 7.875C4.5 9.73896 6.01104 11.25 7.875 11.25ZM7.875 12.75C10.5674 12.75 12.75 10.5674 12.75 7.875C12.75 5.18261 10.5674 3 7.875 3C5.18261 3 3 5.18261 3 7.875C3 10.5674 5.18261 12.75 7.875 12.75Z" fill="#888888"/>
<path d="M11.1831 9.91089L14.9999 13.7277L13.7276 15L9.91084 11.1832L11.1831 9.91089Z" fill="#888888"/>
</svg>
