<svg width="12" height="12" viewBox="0 0 12 12" fill="none" xmlns="http://www.w3.org/2000/svg">
<g clip-path="url(#clip0_595_12304)">
<circle cx="6" cy="6" r="5.5" fill="white" stroke="#AAAAAA"/>
<path d="M5.30078 7.21875V7.30469H6.33203V7.21875C6.33594 6.67188 6.53125 6.41797 6.97266 6.15625C7.48438 5.84766 7.81641 5.44141 7.81641 4.79688C7.81641 3.83203 7.04688 3.26562 5.95703 3.26562C4.95703 3.26562 4.14062 3.79297 4.12109 4.89062H5.23047C5.24609 4.43359 5.58594 4.19141 5.94922 4.1875C6.32812 4.19141 6.63281 4.44531 6.62891 4.83594C6.63281 5.19531 6.37109 5.4375 6.03516 5.65625C5.56641 5.94922 5.30469 6.24609 5.30078 7.21875ZM5.18359 8.41406C5.17578 8.77734 5.47266 9.07031 5.83984 9.07031C6.1875 9.07031 6.48828 8.77734 6.48828 8.41406C6.48828 8.05469 6.1875 7.76172 5.83984 7.76562C5.47266 7.76172 5.17578 8.05469 5.18359 8.41406Z" fill="#AAAAAA"/>
</g>
<defs>
<clipPath id="clip0_595_12304">
<rect width="12" height="12" fill="white"/>
</clipPath>
</defs>
</svg>
