<svg width="20" height="20" viewBox="0 0 20 20" fill="none" xmlns="http://www.w3.org/2000/svg">
<rect width="20" height="20" rx="5" fill="#1949D8"/>
<path d="M6 14H10.7245C12.8798 14 14 13.0629 14 11.7829V11.76C14 10.6629 13.2938 10.1143 12.1979 9.81714C13.1111 9.52 13.7199 8.93714 13.7199 7.98857V7.96571C13.7199 7.41714 13.5008 7.00571 13.1963 6.72C12.6971 6.25143 11.9543 6 10.7732 6H6V14ZM8.77626 9.14286V8.02286H10.0061C10.6149 8.02286 10.9193 8.21714 10.9193 8.57143V8.59429C10.9193 8.94857 10.6271 9.14286 10.0183 9.14286H8.77626ZM8.77626 11.9771V10.7886H10.2131C10.8341 10.7886 11.1385 11.0286 11.1385 11.3714V11.3943C11.1385 11.7371 10.8219 11.9771 10.2009 11.9771H8.77626Z" fill="#F3F8FF"/>
</svg>
