<svg width="20" height="20" viewBox="0 0 20 20" fill="none" xmlns="http://www.w3.org/2000/svg">
<rect x="0.5" y="0.5" width="19" height="19" rx="4.5" fill="#E1EEFA" stroke="#1949D8"/>
<path d="M10.2994 14C12.5509 14 14 13.0083 14 11.3884V11.3664C14 9.81267 12.5629 9.23967 10.4192 8.87603C9.53293 8.72176 9.30539 8.58953 9.30539 8.38017V8.35813C9.30539 8.1708 9.49701 8.03857 9.91617 8.03857C10.6946 8.03857 11.6407 8.26997 12.4311 8.7989L13.7964 7.05785C12.8263 6.35262 11.6287 6 10.012 6C7.7006 6 6.45509 7.13499 6.45509 8.60055V8.62259C6.45509 10.2534 8.10778 10.7493 9.98802 11.1019C10.8862 11.2672 11.1497 11.3884 11.1497 11.6088V11.6309C11.1497 11.8402 10.9341 11.9614 10.4311 11.9614C9.4491 11.9614 8.40719 11.697 7.49701 11.0579L6 12.6997C7.06587 13.5592 8.5988 14 10.2994 14Z" fill="#1949D8"/>
</svg>
