<svg width="192" height="65" viewBox="0 0 192 65" fill="none" xmlns="http://www.w3.org/2000/svg">
<g clip-path="url(#clip0_714_9586)">
<path d="M0 0.663086H9.2L16.7 13.3117L24.2 0.663086H33.4V33.328H24.74V14.5677L16.7 27.3548H16.52L8.52 14.6666V33.328H0V0.663086Z" fill="#1949D8"/>
<path d="M37.18 17.0892V17.0002C37.03 7.75359 44.49 0.148587 53.83 0.000245298C63.17 -0.148097 70.87 7.22945 71.02 16.4662C71.02 16.6146 71.02 16.753 71.02 16.9013V16.9904C71.17 26.2271 63.71 33.842 54.37 33.9904C45.03 34.1387 37.33 26.7612 37.18 17.5244C37.18 17.376 37.18 17.2376 37.18 17.0892V17.0892ZM62.14 17.0892V17.0002C62.14 12.2929 58.86 8.19862 54.06 8.19862C49.26 8.19862 46.12 12.2039 46.12 16.9112V17.0002C46.12 21.7076 49.39 25.8019 54.16 25.8019C58.96 25.8019 62.15 21.7966 62.15 17.0892H62.14Z" fill="#1949D8"/>
<path d="M73.96 28.4618L78.81 22.449C81.62 24.9115 85.24 26.3059 89 26.3653C91.33 26.3653 92.59 25.5247 92.59 24.1303V24.0413C92.59 22.6864 91.56 21.9447 87.29 20.9162C80.6 19.3339 75.44 17.3757 75.44 10.6707V10.5718C75.44 4.51944 80.06 0.138402 87.6 0.138402C92.3 -0.0297186 96.9 1.51304 100.53 4.46999L96.17 10.8487C93.65 8.89058 90.57 7.76318 87.37 7.63462C85.26 7.63462 84.23 8.56423 84.23 9.73119V9.82019C84.23 11.3135 85.31 11.9563 89.66 12.9848C96.89 14.6166 101.38 17.0395 101.38 23.1413V23.2402C101.38 29.9057 96.31 33.8615 88.68 33.8615C83.26 33.9802 77.99 32.0418 73.96 28.452V28.4618Z" fill="#1949D8"/>
<path d="M113.07 8.60433H103.64V0.663086H131.2V8.60433H121.78V33.328H113.08V8.60433H113.07Z" fill="#1949D8"/>
<path d="M135.75 0.663086H161.02V8.36698H144.36V13.3117H159.45V20.4519H144.36V25.634H161.24V33.328H135.75V0.663086Z" fill="#1949D8"/>
<path d="M165.47 0.663086H178.94C186.89 0.663086 192 4.90567 192 12.1448V12.2338C192 19.9377 186.3 23.9923 178.49 23.9923H174.18V33.3181H165.47V0.663086ZM178.3 16.9115C181.4 16.9115 183.28 15.2303 183.28 12.659V12.57C183.28 9.77129 181.39 8.27798 178.26 8.27798H174.17V16.9115H178.3V16.9115Z" fill="#1949D8"/>
<path d="M74.6159 58.44L72.1959 52.84L69.7959 58.44H74.6159ZM71.0959 49.9H73.3759L79.5359 64H76.9359L75.5159 60.62H68.8959L67.4559 64H64.9359L71.0959 49.9ZM85.5967 62.12C85.9967 62.12 86.3834 62.04 86.7567 61.88C87.1301 61.72 87.4567 61.4933 87.7367 61.2C88.0167 60.8933 88.2367 60.5333 88.3967 60.12C88.5701 59.7067 88.6567 59.2467 88.6567 58.74V58.7C88.6567 58.1933 88.5701 57.7333 88.3967 57.32C88.2367 56.8933 88.0167 56.5333 87.7367 56.24C87.4567 55.9467 87.1301 55.72 86.7567 55.56C86.3834 55.4 85.9967 55.32 85.5967 55.32C85.1834 55.32 84.7901 55.4 84.4167 55.56C84.0567 55.7067 83.7367 55.9267 83.4567 56.22C83.1767 56.5133 82.9567 56.8733 82.7967 57.3C82.6367 57.7133 82.5567 58.18 82.5567 58.7V58.74C82.5567 59.2467 82.6367 59.7133 82.7967 60.14C82.9567 60.5533 83.1767 60.9067 83.4567 61.2C83.7367 61.4933 84.0567 61.72 84.4167 61.88C84.7901 62.04 85.1834 62.12 85.5967 62.12ZM85.0167 64.22C84.3901 64.22 83.7834 64.1 83.1967 63.86C82.6101 63.62 82.0901 63.2667 81.6367 62.8C81.1834 62.3333 80.8167 61.76 80.5367 61.08C80.2567 60.4 80.1167 59.62 80.1167 58.74V58.7C80.1167 57.82 80.2501 57.04 80.5167 56.36C80.7967 55.68 81.1634 55.1067 81.6167 54.64C82.0701 54.1733 82.5901 53.82 83.1767 53.58C83.7767 53.34 84.3901 53.22 85.0167 53.22C85.8834 53.22 86.6034 53.4067 87.1767 53.78C87.7501 54.1533 88.2301 54.5867 88.6167 55.08V49.4H91.0367V64H88.6167V62.24C88.2301 62.7867 87.7434 63.2533 87.1567 63.64C86.5834 64.0267 85.8701 64.22 85.0167 64.22ZM93.0552 53.44H95.4752V55.04C95.6485 54.8 95.8352 54.5733 96.0352 54.36C96.2352 54.1467 96.4618 53.9533 96.7152 53.78C96.9818 53.6067 97.2752 53.4733 97.5952 53.38C97.9285 53.2733 98.2952 53.22 98.6952 53.22C99.4552 53.22 100.095 53.3933 100.615 53.74C101.148 54.0733 101.555 54.52 101.835 55.08C102.262 54.52 102.762 54.0733 103.335 53.74C103.922 53.3933 104.615 53.22 105.415 53.22C106.575 53.22 107.482 53.5733 108.135 54.28C108.788 54.9733 109.115 55.9667 109.115 57.26V64H106.695V58C106.695 57.16 106.508 56.52 106.135 56.08C105.762 55.64 105.235 55.42 104.555 55.42C103.888 55.42 103.342 55.6467 102.915 56.1C102.502 56.54 102.295 57.1867 102.295 58.04V64H99.8752V57.98C99.8752 57.1533 99.6885 56.52 99.3152 56.08C98.9418 55.64 98.4152 55.42 97.7352 55.42C97.0552 55.42 96.5085 55.6533 96.0952 56.12C95.6818 56.5867 95.4752 57.2333 95.4752 58.06V64H93.0552V53.44ZM111.199 53.44H113.619V64H111.199V53.44ZM111.099 49.52H113.699V51.82H111.099V49.52ZM115.782 53.44H118.202V55.08C118.375 54.8267 118.562 54.5933 118.762 54.38C118.975 54.1533 119.215 53.9533 119.482 53.78C119.762 53.6067 120.062 53.4733 120.382 53.38C120.715 53.2733 121.088 53.22 121.502 53.22C122.702 53.22 123.628 53.5867 124.282 54.32C124.935 55.0533 125.262 56.04 125.262 57.28V64H122.842V58C122.842 57.1733 122.642 56.54 122.242 56.1C121.855 55.6467 121.302 55.42 120.582 55.42C119.875 55.42 119.302 55.6533 118.862 56.12C118.422 56.5733 118.202 57.2133 118.202 58.04V64H115.782V53.44Z" fill="black"/>
</g>
<defs>
<clipPath id="clip0_714_9586">
<rect width="192" height="65" fill="white"/>
</clipPath>
</defs>
</svg>
