<svg width="160" height="18" viewBox="0 0 160 18" fill="none" xmlns="http://www.w3.org/2000/svg">
<g clip-path="url(#clip0_622_5819)">
<path d="M0 0.35083H4.98333L9.04583 7.04717L13.1083 0.35083H18.0917V17.644H13.4008V7.71209L9.04583 14.4817H8.94833L4.615 7.76444V17.644H0V0.35083Z" fill="#1949D8"/>
<path d="M20.1391 9.04706V8.99994C20.0579 4.10465 24.0987 0.0784772 29.1579 -5.68324e-05C34.2171 -0.0785909 38.3879 3.82717 38.4691 8.71722C38.4691 8.79575 38.4691 8.86905 38.4691 8.94759V8.99471C38.5504 13.8848 34.5096 17.9162 29.4504 17.9947C24.3912 18.0732 20.2204 14.1675 20.1391 9.27743C20.1391 9.19889 20.1391 9.1256 20.1391 9.04706ZM33.6591 9.04706V8.99994C33.6591 6.5078 31.8825 4.34026 29.2825 4.34026C26.6825 4.34026 24.9816 6.46068 24.9816 8.95282V8.99994C24.9816 11.4921 26.7529 13.6596 29.3366 13.6596C31.9366 13.6596 33.6646 11.5392 33.6646 9.04706H33.6591Z" fill="#1949D8"/>
<path d="M40.0616 15.068L42.6887 11.8847C44.2108 13.1884 46.1716 13.9266 48.2083 13.958C49.4704 13.958 50.1529 13.513 50.1529 12.7748V12.7277C50.1529 12.0104 49.595 11.6177 47.2821 11.0732C43.6583 10.2355 40.8633 9.19888 40.8633 5.64915V5.59679C40.8633 2.3926 43.3658 0.0732288 47.45 0.0732288C49.9958 -0.0157765 52.4875 0.800978 54.4537 2.36642L52.0921 5.74339C50.7271 4.70674 49.0587 4.10988 47.3254 4.04182C46.1825 4.04182 45.6246 4.53396 45.6246 5.15176V5.19888C45.6246 5.98946 46.2096 6.32977 48.5658 6.87428C52.4821 7.73815 54.9141 9.02087 54.9141 12.2512V12.3036C54.9141 15.8324 52.1679 17.9266 48.035 17.9266C45.0991 17.9895 42.2446 16.9633 40.0616 15.0628V15.068Z" fill="#1949D8"/>
<path d="M61.2462 4.55502H56.1383V0.35083H71.0666V4.55502H65.9641V17.644H61.2516V4.55502H61.2462Z" fill="#1949D8"/>
<path d="M73.5312 0.35083H87.2192V4.42936H78.195V7.04717H86.3687V10.8273H78.195V13.5707H87.3383V17.644H73.5312V0.35083Z" fill="#1949D8"/>
<path d="M89.6296 0.35083H96.9258C101.232 0.35083 104 2.5969 104 6.42936V6.47648C104 10.555 100.912 12.7016 96.6821 12.7016H94.3475V17.6388H89.6296V0.35083ZM96.5792 8.95292C98.2583 8.95292 99.2767 8.06287 99.2767 6.70162V6.6545C99.2767 5.17282 98.2529 4.38224 96.5575 4.38224H94.3421V8.95292H96.5792Z" fill="#1949D8"/>
<path d="M122.346 9.776L121.378 7.536L120.418 9.776H122.346ZM120.938 6.36H121.85L124.314 12H123.274L122.706 10.648H120.058L119.482 12H118.474L120.938 6.36ZM127.139 11.248C127.299 11.248 127.453 11.216 127.603 11.152C127.752 11.088 127.883 10.9973 127.995 10.88C128.107 10.7573 128.195 10.6133 128.259 10.448C128.328 10.2827 128.363 10.0987 128.363 9.896V9.88C128.363 9.67733 128.328 9.49333 128.259 9.328C128.195 9.15733 128.107 9.01333 127.995 8.896C127.883 8.77867 127.752 8.688 127.603 8.624C127.453 8.56 127.299 8.528 127.139 8.528C126.973 8.528 126.816 8.56 126.667 8.624C126.523 8.68267 126.395 8.77067 126.283 8.888C126.171 9.00533 126.083 9.14933 126.019 9.32C125.955 9.48533 125.923 9.672 125.923 9.88V9.896C125.923 10.0987 125.955 10.2853 126.019 10.456C126.083 10.6213 126.171 10.7627 126.283 10.88C126.395 10.9973 126.523 11.088 126.667 11.152C126.816 11.216 126.973 11.248 127.139 11.248ZM126.907 12.088C126.656 12.088 126.413 12.04 126.179 11.944C125.944 11.848 125.736 11.7067 125.555 11.52C125.373 11.3333 125.227 11.104 125.115 10.832C125.003 10.56 124.947 10.248 124.947 9.896V9.88C124.947 9.528 125 9.216 125.107 8.944C125.219 8.672 125.365 8.44267 125.547 8.256C125.728 8.06933 125.936 7.928 126.171 7.832C126.411 7.736 126.656 7.688 126.907 7.688C127.253 7.688 127.541 7.76267 127.771 7.912C128 8.06133 128.192 8.23467 128.347 8.432V6.16H129.315V12H128.347V11.296C128.192 11.5147 127.997 11.7013 127.763 11.856C127.533 12.0107 127.248 12.088 126.907 12.088ZM130.522 7.776H131.49V8.416C131.559 8.32 131.634 8.22933 131.714 8.144C131.794 8.05867 131.885 7.98133 131.986 7.912C132.093 7.84267 132.21 7.78933 132.338 7.752C132.471 7.70933 132.618 7.688 132.778 7.688C133.082 7.688 133.338 7.75733 133.546 7.896C133.759 8.02933 133.922 8.208 134.034 8.432C134.205 8.208 134.405 8.02933 134.634 7.896C134.869 7.75733 135.146 7.688 135.466 7.688C135.93 7.688 136.293 7.82933 136.554 8.112C136.815 8.38933 136.946 8.78667 136.946 9.304V12H135.978V9.6C135.978 9.264 135.903 9.008 135.754 8.832C135.605 8.656 135.394 8.568 135.122 8.568C134.855 8.568 134.637 8.65867 134.466 8.84C134.301 9.016 134.218 9.27467 134.218 9.616V12H133.25V9.592C133.25 9.26133 133.175 9.008 133.026 8.832C132.877 8.656 132.666 8.568 132.394 8.568C132.122 8.568 131.903 8.66133 131.738 8.848C131.573 9.03467 131.49 9.29333 131.49 9.624V12H130.522V7.776ZM138.18 7.776H139.148V12H138.18V7.776ZM138.14 6.208H139.18V7.128H138.14V6.208ZM140.413 7.776H141.381V8.432C141.45 8.33067 141.525 8.23733 141.605 8.152C141.69 8.06133 141.786 7.98133 141.893 7.912C142.005 7.84267 142.125 7.78933 142.253 7.752C142.386 7.70933 142.535 7.688 142.701 7.688C143.181 7.688 143.551 7.83467 143.813 8.128C144.074 8.42133 144.205 8.816 144.205 9.312V12H143.237V9.6C143.237 9.26933 143.157 9.016 142.997 8.84C142.842 8.65867 142.621 8.568 142.333 8.568C142.05 8.568 141.821 8.66133 141.645 8.848C141.469 9.02933 141.381 9.28533 141.381 9.616V12H140.413V7.776Z" fill="black"/>
<rect x="108.5" y="0.5" width="46" height="17" rx="8.5" stroke="black"/>
</g>
<defs>
<clipPath id="clip0_622_5819">
<rect width="160" height="18" fill="white"/>
</clipPath>
</defs>
</svg>
