<svg width="32" height="32" viewBox="0 0 32 32" fill="none" xmlns="http://www.w3.org/2000/svg">
<path fill-rule="evenodd" clip-rule="evenodd" d="M16 6.45902L4.19235 27.3607H27.8077L16 6.45902ZM16.6946 4.40984C16.3859 3.86339 15.6141 3.86339 15.3054 4.40984L2.10865 27.7705C1.79995 28.3169 2.18582 29 2.80322 29H29.1968C29.8142 29 30.2001 28.3169 29.8914 27.7705L16.6946 4.40984Z" fill="#1949D8"/>
<path fill-rule="evenodd" clip-rule="evenodd" d="M16 13C16.5523 13 17 13.3256 17 13.7273V20.2727C17 20.6744 16.5523 21 16 21C15.4477 21 15 20.6744 15 20.2727V13.7273C15 13.3256 15.4477 13 16 13Z" fill="#1949D8"/>
<path d="M17 23.5C17 24.3284 16.5523 25 16 25C15.4477 25 15 24.3284 15 23.5C15 22.6716 15.4477 22 16 22C16.5523 22 17 22.6716 17 23.5Z" fill="#1949D8"/>
</svg>
