<svg width="50" height="50" viewBox="0 0 50 50" fill="none" xmlns="http://www.w3.org/2000/svg">
<path fill-rule="evenodd" clip-rule="evenodd" d="M25 50C38.8071 50 50 38.8071 50 25C50 11.1929 38.8071 0 25 0C11.1929 0 0 11.1929 0 25C0 38.8071 11.1929 50 25 50ZM25 45.8333C36.5059 45.8333 45.8333 36.5059 45.8333 25C45.8333 13.4941 36.5059 4.16667 25 4.16667C13.4941 4.16667 4.16667 13.4941 4.16667 25C4.16667 36.5059 13.4941 45.8333 25 45.8333Z" fill="url(#paint0_angular_1417_28246)"/>
<path fill-rule="evenodd" clip-rule="evenodd" d="M47.4615 20.0015C48.6027 19.8543 49.6471 20.66 49.7943 21.8011C49.9312 22.8619 49.9998 23.9304 49.9998 25C49.9998 26.1506 49.0671 27.0834 47.9165 27.0834C46.7659 27.0834 45.8331 26.1506 45.8331 25C45.8331 24.1087 45.7759 23.2183 45.6619 22.3343C45.5147 21.1931 46.3204 20.1487 47.4615 20.0015Z" fill="#1949D8"/>
<defs>
<radialGradient id="paint0_angular_1417_28246" cx="0" cy="0" r="1" gradientUnits="userSpaceOnUse" gradientTransform="translate(25 25) scale(25)">
<stop stop-color="#27AE60" stop-opacity="0"/>
<stop offset="0.0001" stop-color="#1949D8" stop-opacity="0"/>
<stop offset="1" stop-color="#1949D8"/>
</radialGradient>
</defs>
</svg>
