<svg width="160" height="18" viewBox="0 0 160 18" fill="none" xmlns="http://www.w3.org/2000/svg">
<g clip-path="url(#clip0_1368_19410)">
<path d="M0 0.351562H4.98333L9.04583 7.0479L13.1083 0.351562H18.0917V17.6448H13.4008V7.71282L9.04583 14.4825H8.94833L4.615 7.76518V17.6448H0V0.351562Z" fill="#1949D8"/>
<path d="M20.1391 9.04828V9.00116C20.0579 4.10588 24.0987 0.0796979 29.1579 0.00116387C34.2171 -0.0773702 38.3879 3.82839 38.4691 8.71844C38.4691 8.79697 38.4691 8.87027 38.4691 8.94881V8.99593C38.5504 13.886 34.5096 17.9174 29.4504 17.9959C24.3912 18.0745 20.2204 14.1687 20.1391 9.27865C20.1391 9.20012 20.1391 9.12682 20.1391 9.04828ZM33.6591 9.04828V9.00116C33.6591 6.50902 31.8825 4.34148 29.2825 4.34148C26.6825 4.34148 24.9816 6.4619 24.9816 8.95404V9.00116C24.9816 11.4933 26.7529 13.6608 29.3366 13.6608C31.9366 13.6608 33.6646 11.5404 33.6646 9.04828H33.6591Z" fill="#1949D8"/>
<path d="M40.0616 15.0677L42.6887 11.8845C44.2108 13.1882 46.1716 13.9264 48.2083 13.9578C49.4704 13.9578 50.1529 13.5128 50.1529 12.7746V12.7274C50.1529 12.0102 49.595 11.6175 47.2821 11.073C43.6583 10.2353 40.8633 9.19864 40.8633 5.6489V5.59654C40.8633 2.39236 43.3658 0.0729846 47.45 0.0729846C49.9958 -0.0160206 52.4875 0.800733 54.4537 2.36618L52.0921 5.74314C50.7271 4.70649 49.0587 4.10963 47.3254 4.04157C46.1825 4.04157 45.6246 4.53372 45.6246 5.15152V5.19864C45.6246 5.98921 46.2096 6.32953 48.5658 6.87403C52.4821 7.73791 54.9141 9.02063 54.9141 12.251V12.3034C54.9141 15.8321 52.1679 17.9264 48.035 17.9264C45.0991 17.9892 42.2446 16.963 40.0616 15.0625V15.0677Z" fill="#1949D8"/>
<path d="M61.2462 4.55575H56.1383V0.351562H71.0666V4.55575H65.9641V17.6448H61.2516V4.55575H61.2462Z" fill="#1949D8"/>
<path d="M73.5312 0.351562H87.2192V4.4301H78.195V7.0479H86.3687V10.828H78.195V13.5715H87.3383V17.6448H73.5312V0.351562Z" fill="#1949D8"/>
<path d="M89.6296 0.351562H96.9258C101.232 0.351562 104 2.59764 104 6.4301V6.47722C104 10.5558 100.912 12.7023 96.6821 12.7023H94.3475V17.6395H89.6296V0.351562ZM96.5792 8.95366C98.2583 8.95366 99.2767 8.0636 99.2767 6.70235V6.65523C99.2767 5.17355 98.2529 4.38298 96.5575 4.38298H94.3421V8.95366H96.5792Z" fill="#1949D8"/>
<path d="M118.99 7.864C118.99 7.67733 119.07 7.52 119.23 7.392C119.39 7.25867 119.614 7.192 119.902 7.192C120.158 7.192 120.411 7.24267 120.662 7.344C120.912 7.44 121.166 7.58133 121.422 7.768L121.95 7.024C121.662 6.79467 121.352 6.62133 121.022 6.504C120.696 6.38133 120.328 6.32 119.918 6.32C119.64 6.32 119.384 6.36 119.15 6.44C118.915 6.51467 118.712 6.624 118.542 6.768C118.376 6.912 118.246 7.08533 118.15 7.288C118.054 7.48533 118.006 7.70667 118.006 7.952C118.006 8.21333 118.046 8.43467 118.126 8.616C118.211 8.79733 118.331 8.952 118.486 9.08C118.646 9.208 118.84 9.31467 119.07 9.4C119.304 9.48533 119.571 9.56267 119.87 9.632C120.131 9.696 120.342 9.75733 120.502 9.816C120.667 9.87467 120.795 9.93867 120.886 10.008C120.982 10.072 121.046 10.144 121.078 10.224C121.115 10.304 121.134 10.3947 121.134 10.496C121.134 10.7147 121.043 10.888 120.862 11.016C120.686 11.144 120.446 11.208 120.142 11.208C119.79 11.208 119.475 11.1467 119.198 11.024C118.92 10.896 118.646 10.7147 118.374 10.48L117.782 11.184C118.118 11.488 118.483 11.7147 118.878 11.864C119.272 12.008 119.686 12.08 120.118 12.08C120.411 12.08 120.68 12.0427 120.926 11.968C121.171 11.8933 121.382 11.784 121.558 11.64C121.734 11.496 121.87 11.32 121.966 11.112C122.067 10.904 122.118 10.6667 122.118 10.4C122.118 10.1653 122.078 9.96267 121.998 9.792C121.923 9.616 121.811 9.464 121.661 9.336C121.512 9.20267 121.323 9.09067 121.094 9C120.87 8.90933 120.611 8.82667 120.318 8.752C120.051 8.688 119.83 8.62667 119.654 8.568C119.483 8.50933 119.347 8.44533 119.246 8.376C119.15 8.30667 119.083 8.232 119.046 8.152C119.008 8.072 118.99 7.976 118.99 7.864ZM126.982 7.776H125.974L124.878 10.912L123.678 7.776H122.646L124.406 12C124.326 12.1867 124.24 12.3147 124.15 12.384C124.059 12.4533 123.944 12.488 123.806 12.488C123.704 12.488 123.606 12.472 123.51 12.44C123.419 12.4133 123.328 12.376 123.238 12.328L122.91 13.048C123.059 13.128 123.211 13.1893 123.366 13.232C123.526 13.28 123.707 13.304 123.91 13.304C124.08 13.304 124.232 13.2827 124.366 13.24C124.499 13.1973 124.622 13.128 124.734 13.032C124.846 12.9413 124.947 12.8213 125.038 12.672C125.128 12.5227 125.216 12.3387 125.302 12.12L126.982 7.776ZM130.671 10.752V10.736C130.671 10.544 130.631 10.3813 130.551 10.248C130.471 10.1147 130.367 10.0027 130.239 9.912C130.116 9.816 129.978 9.736 129.823 9.672C129.668 9.608 129.514 9.552 129.359 9.504C129.236 9.46667 129.116 9.42933 128.999 9.392C128.887 9.34933 128.786 9.30667 128.695 9.264C128.61 9.216 128.54 9.16533 128.487 9.112C128.434 9.05333 128.407 8.98667 128.407 8.912V8.896C128.407 8.77333 128.458 8.672 128.559 8.592C128.666 8.512 128.812 8.472 128.999 8.472C129.175 8.472 129.367 8.50933 129.575 8.584C129.783 8.65333 129.988 8.74933 130.191 8.872L130.575 8.184C130.351 8.03467 130.103 7.91733 129.831 7.832C129.559 7.74667 129.29 7.704 129.023 7.704C128.815 7.704 128.618 7.73333 128.431 7.792C128.25 7.85067 128.09 7.936 127.951 8.048C127.818 8.16 127.711 8.296 127.631 8.456C127.556 8.616 127.519 8.79467 127.519 8.992V9.008C127.519 9.21067 127.559 9.38133 127.639 9.52C127.719 9.65333 127.82 9.768 127.943 9.864C128.071 9.95467 128.212 10.0293 128.367 10.088C128.527 10.1467 128.684 10.2 128.839 10.248C128.962 10.2853 129.079 10.3227 129.191 10.36C129.308 10.392 129.41 10.432 129.495 10.48C129.586 10.5227 129.655 10.5733 129.703 10.632C129.756 10.6907 129.783 10.76 129.783 10.84V10.856C129.783 10.9947 129.724 11.1067 129.607 11.192C129.495 11.272 129.335 11.312 129.127 11.312C128.908 11.312 128.679 11.2693 128.439 11.184C128.204 11.0933 127.972 10.9627 127.743 10.792L127.311 11.448C127.578 11.656 127.866 11.8133 128.175 11.92C128.49 12.0267 128.799 12.08 129.103 12.08C129.322 12.08 129.527 12.0533 129.719 12C129.911 11.9413 130.076 11.8587 130.215 11.752C130.359 11.64 130.471 11.5013 130.551 11.336C130.631 11.1707 130.671 10.976 130.671 10.752ZM132.745 8.608H133.881V7.776H132.745V6.616H131.777V7.776H131.241V8.608H131.777V10.832C131.777 11.0667 131.806 11.264 131.865 11.424C131.923 11.5787 132.006 11.704 132.113 11.8C132.225 11.896 132.355 11.9653 132.505 12.008C132.654 12.0507 132.817 12.072 132.993 12.072C133.174 12.072 133.334 12.0533 133.473 12.016C133.611 11.9787 133.742 11.9253 133.865 11.856V11.064C133.673 11.16 133.473 11.208 133.265 11.208C133.099 11.208 132.971 11.168 132.881 11.088C132.79 11.0027 132.745 10.8667 132.745 10.68V8.608ZM135.477 10.232H138.581C138.586 10.184 138.589 10.1387 138.589 10.096C138.594 10.0533 138.597 10.0107 138.597 9.968C138.597 9.664 138.554 9.37333 138.469 9.096C138.383 8.81867 138.255 8.576 138.085 8.368C137.919 8.16 137.709 7.99467 137.453 7.872C137.202 7.74933 136.909 7.688 136.573 7.688C136.269 7.688 135.991 7.74667 135.741 7.864C135.49 7.98133 135.271 8.14133 135.085 8.344C134.903 8.54133 134.762 8.77333 134.661 9.04C134.559 9.30667 134.509 9.592 134.509 9.896C134.509 10.2267 134.565 10.528 134.677 10.8C134.789 11.0667 134.941 11.296 135.133 11.488C135.33 11.68 135.559 11.8293 135.821 11.936C136.087 12.0427 136.373 12.096 136.677 12.096C137.066 12.096 137.399 12.024 137.677 11.88C137.959 11.736 138.202 11.544 138.405 11.304L137.837 10.8C137.666 10.9653 137.493 11.0907 137.317 11.176C137.141 11.2613 136.933 11.304 136.693 11.304C136.378 11.304 136.111 11.2133 135.893 11.032C135.674 10.8453 135.535 10.5787 135.477 10.232ZM135.469 9.592C135.511 9.26133 135.629 8.99467 135.821 8.792C136.018 8.584 136.266 8.48 136.565 8.48C136.725 8.48 136.866 8.50933 136.989 8.568C137.117 8.62667 137.226 8.70667 137.317 8.808C137.407 8.904 137.479 9.02133 137.533 9.16C137.586 9.29333 137.621 9.43733 137.637 9.592H135.469ZM143.081 8.432C142.969 8.208 142.806 8.02933 142.593 7.896C142.385 7.75733 142.129 7.688 141.825 7.688C141.665 7.688 141.518 7.70933 141.385 7.752C141.257 7.78933 141.14 7.84267 141.033 7.912C140.932 7.98133 140.841 8.05867 140.761 8.144C140.681 8.22933 140.606 8.32 140.537 8.416V7.776H139.569V12H140.537V9.624C140.537 9.29333 140.62 9.03467 140.785 8.848C140.95 8.66133 141.169 8.568 141.441 8.568C141.713 8.568 141.924 8.656 142.073 8.832C142.222 9.008 142.297 9.26133 142.297 9.592V12H143.265V9.616C143.265 9.27467 143.348 9.016 143.513 8.84C143.684 8.65867 143.902 8.568 144.169 8.568C144.441 8.568 144.652 8.656 144.801 8.832C144.95 9.008 145.025 9.264 145.025 9.6V12H145.993V9.304C145.993 8.78667 145.862 8.38933 145.601 8.112C145.34 7.82933 144.977 7.688 144.513 7.688C144.193 7.688 143.916 7.75733 143.681 7.896C143.452 8.02933 143.252 8.208 143.081 8.432Z" fill="black"/>
<rect x="108.5" y="0.5" width="46" height="17" rx="8.5" stroke="black"/>
</g>
<defs>
<clipPath id="clip0_1368_19410">
<rect width="160" height="18" fill="white"/>
</clipPath>
</defs>
</svg>
